<svg fill="none" height="24" viewBox="0 0 24 24" width="24" xmlns="http://www.w3.org/2000/svg"><path clip-rule="evenodd" d="m7.22437 4.04882c1.62158-1.57778 3.83533-2.54882 6.27563-2.54882 4.9706 0 9 4.02944 9 9 0 2.4403-.971 4.654-2.5488 6.2756.3556-1.0262.5488-2.1283.5488-3.2756 0-5.52285-4.4772-10-10-10-1.14725 0-2.24938.19319-3.27563.54882zm-2.13526 1.04009c1.77903-2.75981 4.88116-4.58891 8.41089-4.58891 5.5228 0 10 4.47715 10 10 0 3.5297-1.8291 6.6319-4.5889 8.4109-1.7798 2.7609-4.882 4.5891-8.4111 4.5891-5.52285 0-10-4.4772-10-10 0-3.52914 1.82816-6.63129 4.58911-8.41109zm-3.58911 8.41109c0-4.97056 4.02944-9 9-9 4.9706 0 9 4.02944 9 9 0 4.9706-4.0294 9-9 9-4.97056 0-9-4.0294-9-9zm4.5 4v1h9v-1zm2.71872-2h1.70628l1.6688-3.9351v3.9351h2.9062v-6h-3.15l-1.3312 2.7078-1.33133-2.7078h-3.18747v6h.78747v-3.9351z" fill="#1f1f1f" fill-rule="evenodd"></path></svg>